<?xml version="1.0" encoding="utf-8"?>
<!-- Generator: Adobe Illustrator 26.3.1, SVG Export Plug-In . SVG Version: 6.00 Build 0)  -->
<svg version="1.1" id="Ebene_1" xmlns="http://www.w3.org/2000/svg" xmlns:xlink="http://www.w3.org/1999/xlink" x="0px" y="0px"
	 viewBox="0 0 48 48" style="enable-background:new 0 0 48 48;" xml:space="preserve">
<style type="text/css">
	.st0{fill:none;}
</style>
<g>
	<path d="M44,24c0-11-9-20-20-20S4,13,4,24c0,10,7.3,18.3,16.9,19.8v-14h-5.1V24h5.1v-4.4c0-5,3-7.8,7.6-7.8c2.2,0,4.5,0.4,4.5,0.4
		v4.9h-2.5c-2.5,0-3.3,1.5-3.3,3.1V24h5.5l-0.9,5.8h-4.7v14C36.7,42.3,44,34,44,24z"/>
	<path class="st0" d="M31.8,29.8l0.9-5.8h-5.5v-3.8c0-1.6,0.8-3.1,3.3-3.1h2.5v-4.9c0,0-2.3-0.4-4.5-0.4c-4.6,0-7.6,2.8-7.6,7.8V24
		h-5.1v5.8h5.1v14c1,0.2,2.1,0.2,3.1,0.2s2.1-0.1,3.1-0.2v-14H31.8z"/>
</g>
</svg>
