<?xml version="1.0" encoding="utf-8"?>
<!-- Generator: Adobe Illustrator 26.3.1, SVG Export Plug-In . SVG Version: 6.00 Build 0)  -->
<svg version="1.1" id="Layer_1" xmlns="http://www.w3.org/2000/svg" xmlns:xlink="http://www.w3.org/1999/xlink" x="0px" y="0px"
	 viewBox="0 0 48 48" style="enable-background:new 0 0 48 48;" xml:space="preserve">
<style type="text/css">
	.st0{clip-path:url(#SVGID_00000017480027526770781020000009402636543679822015_);fill:#FFFFFF;}
</style>
<g>
	<path d="M24,44c-5.7,0-11.3,0-17,0c-1.5,0-2.8-1-3-2.5c0-0.1,0-0.3,0-0.4C4,29.7,4,18.3,4,6.9C4,5.3,5.2,4,6.9,4c1.8,0,3.6,0,5.4,0
		C21.9,4,31.4,4,41,4c1.5,0,2.6,1.1,2.9,2C43.9,6.3,44,6.6,44,6.9c0,11.4,0,22.8,0,34.2c0,1.6-1.2,2.9-2.9,2.9c-2.1,0-4.3,0-6.4,0
		C31.1,44,27.6,44,24,44z M25.3,21.4c0-0.7,0-1.4,0-2.1c0-0.3-0.1-0.4-0.4-0.4c-1.6,0-3.3,0-4.9,0c-0.5,0-0.5,0-0.5,0.5
		c0,6.1,0,12.1,0,18.2c0,0.4,0.1,0.5,0.5,0.5c1.7,0,3.4,0,5.1,0c0.5,0,0.5,0,0.5-0.5c0-3.1,0-6.1,0-9.2c0-0.6,0-1.3,0.2-1.9
		c0.2-1.3,0.8-2.3,2.2-2.7c0.4-0.1,0.9-0.1,1.3-0.1c1.4,0,2.3,0.7,2.6,2.1c0.2,0.8,0.2,1.6,0.2,2.3c0,3.1,0,6.3,0,9.4
		c0,0.5,0,0.5,0.5,0.5c1.7,0,3.3,0,5,0c0.4,0,0.5-0.1,0.5-0.5c0-3.6,0-7.3,0-10.9c0-1.2-0.2-2.4-0.5-3.6c-0.5-2.1-1.7-3.7-3.9-4.3
		c-0.7-0.2-1.5-0.3-2.3-0.4c-1.4-0.2-2.7,0.1-3.9,0.8C26.7,19.9,25.9,20.6,25.3,21.4z M9.9,28.6c0,3,0,6.1,0,9.1
		c0,0.4,0.1,0.5,0.5,0.5c1.7,0,3.4,0,5.1,0c0.3,0,0.5-0.1,0.5-0.4c0-6.1,0-12.2,0-18.3c0-0.4-0.1-0.4-0.5-0.4c-1.7,0-3.4,0-5.1,0
		c-0.5,0-0.5,0-0.5,0.5C9.9,22.5,9.9,25.5,9.9,28.6z M12.9,16.4c1.9,0,3.5-1.5,3.5-3.5c0-1.9-1.5-3.5-3.5-3.5
		c-1.9,0-3.5,1.5-3.5,3.5C9.4,14.9,11,16.4,12.9,16.4z"/>
	<g>
		<defs>
			<path id="SVGID_1_" d="M12.9,16.4c-1.9,0-3.5-1.5-3.5-3.4c0-2,1.5-3.5,3.5-3.5c1.9,0,3.5,1.6,3.5,3.5
				C16.4,14.9,14.8,16.4,12.9,16.4z"/>
		</defs>
		<clipPath id="SVGID_00000105412730688958246900000009480690704701012659_">
			<use xlink:href="#SVGID_1_"  style="overflow:visible;"/>
		</clipPath>
		<path style="clip-path:url(#SVGID_00000105412730688958246900000009480690704701012659_);fill:#FFFFFF;" d="M25.3,21.4
			c0.6-0.9,1.3-1.6,2.3-2.1c1.2-0.7,2.5-1,3.9-0.8c0.8,0.1,1.6,0.1,2.3,0.4c2.2,0.6,3.4,2.2,3.9,4.3c0.3,1.2,0.4,2.4,0.5,3.6
			c0.1,3.6,0,7.3,0,10.9c0,0.4-0.1,0.5-0.5,0.5c-1.7,0-3.3,0-5,0c-0.5,0-0.5,0-0.5-0.5c0-3.1,0-6.3,0-9.4c0-0.8-0.1-1.6-0.2-2.3
			c-0.3-1.4-1.2-2.1-2.6-2.1c-0.4,0-0.9,0-1.3,0.1c-1.4,0.3-1.9,1.4-2.2,2.7c-0.1,0.6-0.2,1.3-0.2,1.9c0,3.1,0,6.1,0,9.2
			c0,0.5,0,0.5-0.5,0.5c-1.7,0-3.4,0-5.1,0c-0.4,0-0.5-0.1-0.5-0.5c0-6.1,0-12.1,0-18.2c0-0.5,0-0.5,0.5-0.5c1.6,0,3.3,0,4.9,0
			c0.3,0,0.4,0.1,0.4,0.4C25.3,20,25.3,20.7,25.3,21.4z"/>
		<path style="clip-path:url(#SVGID_00000105412730688958246900000009480690704701012659_);fill:#FFFFFF;" d="M9.9,28.6
			c0-3,0-6.1,0-9.1c0-0.5,0-0.5,0.5-0.5c1.7,0,3.4,0,5.1,0c0.3,0,0.5,0.1,0.5,0.4c0,6.1,0,12.2,0,18.3c0,0.4-0.1,0.4-0.5,0.4
			c-1.7,0-3.4,0-5.1,0c-0.4,0-0.5-0.1-0.5-0.5C9.9,34.6,9.9,31.6,9.9,28.6z"/>
	</g>
</g>
</svg>
