<svg width="152" height="37" viewBox="0 0 152 37" fill="none" xmlns="http://www.w3.org/2000/svg">
<g clip-path="url(#clip0_201_37)">
<path d="M22.7372 15.7656H18.3821C18.3026 15.2022 18.1402 14.7017 17.8949 14.2642C17.6496 13.8201 17.3348 13.4422 16.9503 13.1307C16.5658 12.8191 16.1217 12.5805 15.6179 12.4148C15.1207 12.2491 14.5805 12.1662 13.9972 12.1662C12.9432 12.1662 12.0251 12.428 11.2429 12.9517C10.4607 13.4687 9.85417 14.2244 9.4233 15.2188C8.99242 16.2064 8.77699 17.4062 8.77699 18.8182C8.77699 20.2699 8.99242 21.4896 9.4233 22.4773C9.8608 23.465 10.4706 24.2107 11.2528 24.7145C12.035 25.2183 12.9399 25.4702 13.9673 25.4702C14.544 25.4702 15.0777 25.3939 15.5682 25.2415C16.0653 25.089 16.5062 24.867 16.8906 24.5753C17.2751 24.277 17.5933 23.9157 17.8452 23.4915C18.1037 23.0672 18.2827 22.5833 18.3821 22.0398L22.7372 22.0597C22.6245 22.9943 22.3428 23.8958 21.892 24.7642C21.4479 25.6259 20.848 26.3982 20.0923 27.081C19.3433 27.7571 18.4484 28.294 17.4077 28.6918C16.3736 29.0829 15.2036 29.2784 13.8977 29.2784C12.0814 29.2784 10.4574 28.8674 9.02557 28.0455C7.60038 27.2235 6.47348 26.0336 5.64489 24.4759C4.82292 22.9181 4.41193 21.0322 4.41193 18.8182C4.41193 16.5975 4.82955 14.7083 5.66477 13.1506C6.5 11.5928 7.63352 10.4062 9.06534 9.59091C10.4972 8.76894 12.108 8.35795 13.8977 8.35795C15.0777 8.35795 16.1714 8.52367 17.179 8.85511C18.1932 9.18655 19.0914 9.67045 19.8736 10.3068C20.6558 10.9366 21.2921 11.7088 21.7827 12.6236C22.2798 13.5384 22.598 14.5857 22.7372 15.7656ZM25.185 29V13.7273H29.2916V16.392H29.4507C29.7291 15.4441 30.1964 14.7282 30.8526 14.2443C31.5089 13.7538 32.2646 13.5085 33.1197 13.5085C33.3318 13.5085 33.5605 13.5218 33.8058 13.5483C34.051 13.5748 34.2665 13.6113 34.4521 13.6577V17.4162C34.2532 17.3565 33.9781 17.3035 33.6268 17.2571C33.2755 17.2107 32.954 17.1875 32.6623 17.1875C32.0392 17.1875 31.4824 17.3234 30.9918 17.5952C30.5079 17.8603 30.1235 18.2315 29.8384 18.7088C29.56 19.1861 29.4208 19.7363 29.4208 20.3594V29H25.185ZM42.3313 29.2983C40.7603 29.2983 39.4081 28.9801 38.2745 28.3438C37.1476 27.7008 36.2793 26.7926 35.6694 25.6193C35.0596 24.4394 34.7546 23.044 34.7546 21.4332C34.7546 19.8622 35.0596 18.4834 35.6694 17.2969C36.2793 16.1103 37.1377 15.1856 38.2447 14.5227C39.3583 13.8598 40.6642 13.5284 42.1623 13.5284C43.1699 13.5284 44.1079 13.6908 44.9762 14.0156C45.8512 14.3338 46.6135 14.8144 47.2632 15.4574C47.9194 16.1004 48.4298 16.9091 48.7944 17.8835C49.159 18.8513 49.3413 19.9848 49.3413 21.2841V22.4474H36.445V19.8224H45.3541C45.3541 19.2126 45.2215 18.6723 44.9563 18.2017C44.6912 17.7311 44.3233 17.3632 43.8527 17.098C43.3886 16.8262 42.8484 16.6903 42.2319 16.6903C41.5889 16.6903 41.0188 16.8395 40.5217 17.1378C40.0312 17.4295 39.6467 17.8239 39.3683 18.321C39.0899 18.8116 38.9474 19.3584 38.9407 19.9616V22.4574C38.9407 23.2131 39.0799 23.866 39.3583 24.4162C39.6434 24.9664 40.0444 25.3906 40.5615 25.6889C41.0785 25.9872 41.6917 26.1364 42.401 26.1364C42.8716 26.1364 43.3025 26.0701 43.6936 25.9375C44.0847 25.8049 44.4194 25.6061 44.6978 25.3409C44.9762 25.0758 45.1884 24.7509 45.3342 24.3665L49.2518 24.625C49.0529 25.5663 48.6453 26.3883 48.0288 27.0909C47.4189 27.7869 46.6301 28.3305 45.6623 28.7216C44.7011 29.1061 43.5908 29.2983 42.3313 29.2983ZM57.1733 29.2486C56.0133 29.2486 54.9626 28.9503 54.0213 28.3537C53.0867 27.7505 52.3443 26.8655 51.7941 25.6989C51.2505 24.5256 50.9787 23.0871 50.9787 21.3835C50.9787 19.6335 51.2605 18.1785 51.8239 17.0185C52.3874 15.8518 53.1364 14.9801 54.0711 14.4034C55.0124 13.8201 56.0431 13.5284 57.1634 13.5284C58.0185 13.5284 58.7311 13.6742 59.3012 13.9659C59.8779 14.2509 60.3419 14.6089 60.6932 15.0398C61.0512 15.464 61.323 15.8816 61.5086 16.2926H61.6378V8.63636H65.8637V29H61.6875V26.554H61.5086C61.3097 26.9782 61.028 27.3991 60.6634 27.8168C60.3054 28.2277 59.8381 28.5691 59.2614 28.8409C58.6913 29.1127 57.9953 29.2486 57.1733 29.2486ZM58.5157 25.8778C59.1984 25.8778 59.7751 25.6922 60.2458 25.321C60.7231 24.9432 61.0876 24.4162 61.3395 23.7401C61.5981 23.0639 61.7273 22.2718 61.7273 21.3636C61.7273 20.4555 61.6014 19.6667 61.3495 18.9972C61.0976 18.3277 60.733 17.8106 60.2557 17.446C59.7785 17.0814 59.1984 16.8991 58.5157 16.8991C57.8196 16.8991 57.233 17.0881 56.7557 17.4659C56.2785 17.8437 55.9172 18.3674 55.6719 19.0369C55.4267 19.7064 55.304 20.482 55.304 21.3636C55.304 22.2519 55.4267 23.0374 55.6719 23.7202C55.9238 24.3963 56.2851 24.9266 56.7557 25.3111C57.233 25.6889 57.8196 25.8778 58.5157 25.8778ZM68.7863 29V13.7273H73.0221V29H68.7863ZM70.9141 11.7585C70.2844 11.7585 69.7441 11.5497 69.2934 11.1321C68.8493 10.7079 68.6272 10.2008 68.6272 9.61079C68.6272 9.02746 68.8493 8.52699 69.2934 8.10938C69.7441 7.68513 70.2844 7.47301 70.9141 7.47301C71.5439 7.47301 72.0808 7.68513 72.5249 8.10938C72.9757 8.52699 73.2011 9.02746 73.2011 9.61079C73.2011 10.2008 72.9757 10.7079 72.5249 11.1321C72.0808 11.5497 71.5439 11.7585 70.9141 11.7585ZM83.9788 13.7273V16.9091H74.7813V13.7273H83.9788ZM76.8694 10.0682H81.1052V24.3068C81.1052 24.6979 81.1648 25.0028 81.2842 25.2216C81.4035 25.4337 81.5692 25.5829 81.7813 25.669C82.0001 25.7552 82.252 25.7983 82.537 25.7983C82.7359 25.7983 82.9347 25.7817 83.1336 25.7486C83.3325 25.7088 83.4849 25.679 83.591 25.6591L84.2572 28.8111C84.045 28.8774 83.7468 28.9536 83.3623 29.0398C82.9778 29.1326 82.5105 29.1889 81.9603 29.2088C80.9395 29.2486 80.0446 29.1127 79.2756 28.8011C78.5133 28.4896 77.92 28.0057 77.4958 27.3494C77.0716 26.6932 76.8628 25.8646 76.8694 24.8636V10.0682ZM98.7604 29.3182C97.3286 29.3182 96.0956 28.9801 95.0615 28.304C94.0274 27.6278 93.232 26.6965 92.6752 25.5099C92.1184 24.3234 91.8399 22.9678 91.8399 21.4432C91.8399 19.892 92.125 18.5232 92.6951 17.3366C93.2718 16.1435 94.0738 15.2121 95.1013 14.5426C96.1354 13.8665 97.3418 13.5284 98.7206 13.5284C99.7945 13.5284 100.762 13.7273 101.624 14.125C102.486 14.5227 103.192 15.0795 103.742 15.7955C104.292 16.5114 104.634 17.3466 104.766 18.3011H102.419C102.241 17.6051 101.843 16.9886 101.226 16.4517C100.616 15.9081 99.7945 15.6364 98.7604 15.6364C97.8456 15.6364 97.0435 15.875 96.3541 16.3523C95.6714 16.8229 95.1378 17.4891 94.7533 18.3509C94.3755 19.206 94.1865 20.2102 94.1865 21.3636C94.1865 22.5436 94.3721 23.571 94.7434 24.446C95.1212 25.321 95.6515 26.0005 96.3343 26.4844C97.0237 26.9683 97.8324 27.2102 98.7604 27.2102C99.3702 27.2102 99.9238 27.1042 100.421 26.892C100.918 26.6799 101.339 26.375 101.684 25.9773C102.028 25.5795 102.274 25.1023 102.419 24.5455H104.766C104.634 25.447 104.305 26.259 103.782 26.9815C103.265 27.6974 102.579 28.2675 101.723 28.6918C100.875 29.1094 99.8873 29.3182 98.7604 29.3182ZM112.131 29.358C111.163 29.358 110.285 29.1757 109.496 28.8111C108.707 28.4399 108.081 27.9062 107.617 27.2102C107.153 26.5076 106.921 25.6591 106.921 24.6648C106.921 23.7898 107.093 23.0805 107.438 22.5369C107.782 21.9867 108.243 21.5559 108.82 21.2443C109.396 20.9328 110.033 20.7008 110.729 20.5483C111.431 20.3892 112.137 20.2633 112.847 20.1705C113.775 20.0511 114.527 19.9616 115.104 19.902C115.687 19.8357 116.111 19.7263 116.377 19.5739C116.648 19.4214 116.784 19.1562 116.784 18.7784V18.6989C116.784 17.7178 116.516 16.9555 115.979 16.4119C115.449 15.8684 114.643 15.5966 113.563 15.5966C112.442 15.5966 111.564 15.8419 110.928 16.3324C110.291 16.8229 109.844 17.3466 109.585 17.9034L107.358 17.108C107.756 16.1799 108.286 15.4574 108.949 14.9403C109.618 14.4167 110.348 14.0521 111.136 13.8466C111.932 13.6345 112.714 13.5284 113.483 13.5284C113.974 13.5284 114.537 13.5881 115.173 13.7074C115.816 13.8201 116.436 14.0554 117.033 14.4134C117.636 14.7713 118.136 15.3116 118.534 16.0341C118.932 16.7566 119.131 17.7244 119.131 18.9375V29H116.784V26.9318H116.665C116.506 27.2633 116.241 27.6179 115.869 27.9957C115.498 28.3736 115.004 28.6951 114.388 28.9602C113.771 29.2254 113.019 29.358 112.131 29.358ZM112.489 27.25C113.417 27.25 114.199 27.0677 114.835 26.7031C115.478 26.3385 115.962 25.8679 116.287 25.2912C116.618 24.7145 116.784 24.108 116.784 23.4716V21.3239C116.685 21.4432 116.466 21.5526 116.128 21.652C115.797 21.7448 115.412 21.8277 114.975 21.9006C114.544 21.9669 114.123 22.0265 113.712 22.0795C113.307 22.1259 112.979 22.1657 112.727 22.1989C112.118 22.2784 111.547 22.4077 111.017 22.5866C110.493 22.759 110.069 23.0208 109.744 23.3722C109.426 23.7169 109.267 24.1875 109.267 24.7841C109.267 25.5994 109.569 26.2159 110.172 26.6335C110.782 27.0445 111.554 27.25 112.489 27.25ZM122.854 29V13.7273H125.121V16.0341H125.28C125.558 15.2784 126.062 14.6652 126.791 14.1946C127.52 13.724 128.342 13.4886 129.257 13.4886C129.43 13.4886 129.645 13.4919 129.904 13.4986C130.162 13.5052 130.358 13.5152 130.49 13.5284V15.9148C130.411 15.8949 130.228 15.8651 129.943 15.8253C129.665 15.7789 129.37 15.7557 129.058 15.7557C128.316 15.7557 127.653 15.9115 127.07 16.223C126.493 16.5279 126.036 16.9522 125.698 17.4957C125.366 18.0327 125.2 18.6458 125.2 19.3352V29H122.854ZM138.014 29.3182C136.741 29.3182 135.618 28.9967 134.643 28.3537C133.669 27.7041 132.907 26.7893 132.356 25.6094C131.806 24.4228 131.531 23.0208 131.531 21.4034C131.531 19.7992 131.806 18.4072 132.356 17.2273C132.907 16.0473 133.672 15.1359 134.653 14.4929C135.634 13.8499 136.768 13.5284 138.054 13.5284C139.048 13.5284 139.834 13.6941 140.41 14.0256C140.994 14.3504 141.438 14.7216 141.743 15.1392C142.054 15.5502 142.296 15.8883 142.469 16.1534H142.667V8.63636H145.014V29H142.747V26.6534H142.469C142.296 26.9318 142.051 27.2831 141.733 27.7074C141.415 28.125 140.96 28.4995 140.371 28.831C139.781 29.1558 138.995 29.3182 138.014 29.3182ZM138.332 27.2102C139.273 27.2102 140.069 26.965 140.719 26.4744C141.368 25.9773 141.862 25.2912 142.2 24.4162C142.538 23.5346 142.707 22.517 142.707 21.3636C142.707 20.2235 142.541 19.2259 142.21 18.3707C141.879 17.509 141.388 16.8395 140.738 16.3622C140.089 15.8783 139.287 15.6364 138.332 15.6364C137.338 15.6364 136.509 15.8916 135.846 16.402C135.19 16.9058 134.696 17.5919 134.365 18.4602C134.04 19.322 133.878 20.2898 133.878 21.3636C133.878 22.4508 134.043 23.4384 134.375 24.3267C134.713 25.2083 135.21 25.911 135.866 26.4347C136.529 26.9517 137.351 27.2102 138.332 27.2102Z" fill="black"/>
</g>
<defs>
<clipPath id="clip0_201_37">
<rect width="152" height="37" fill="white"/>
</clipPath>
</defs>
</svg>
