<svg xmlns="http://www.w3.org/2000/svg" height="40" width="40"><path fill="#e48b17" d="m21.708 28.167 5.084-5.25q.333-.334.52-.813.188-.479.188-1.021 0-1.041-.729-1.812-.729-.771-1.813-.771-.833 0-1.625.438-.791.437-1.625 1.562-.791-1.083-1.604-1.542-.812-.458-1.646-.458-1.041 0-1.77.771-.73.771-.73 1.812 0 .542.167 1.021.167.479.542.813Zm.75 6.416q-.416.459-1.02.459-.605 0-1.021-.459L5.458 19.625q-.25-.208-.354-.5Q5 18.833 5 18.542V6.417q0-.584.417-1Q5.833 5 6.417 5h12.125q.291 0 .562.104.271.104.521.313l14.917 14.916q.458.459.479 1.084.021.625-.438 1.041Zm-.958-.958 12.125-12.167L18.542 6.417H6.417v12.125ZM10.667 12.208q.625 0 1.083-.479.458-.479.458-1.104 0-.625-.458-1.083-.458-.459-1.083-.459-.667 0-1.125.459-.459.458-.459 1.083t.459 1.104q.458.479 1.125.479Zm-4.25-5.791Z"/></svg>