<svg version="1.1" viewBox="0.0 0.0 960.0 720.0" fill="none" stroke="none" stroke-linecap="square" stroke-miterlimit="10" xmlns:xlink="http://www.w3.org/1999/xlink" xmlns="http://www.w3.org/2000/svg"><clipPath id="p.0"><path d="m0 0l960.0 0l0 720.0l-960.0 0l0 -720.0z" clip-rule="nonzero"/></clipPath><g clip-path="url(#p.0)"><path fill="#000000" fill-opacity="0.0" d="m0 0l960.0 0l0 720.0l-960.0 0z" fill-rule="evenodd"/><path fill="#f3f3f3" d="m0 0l960.0 0l0 720.0l-960.0 0z" fill-rule="evenodd"/><path fill="#000000" fill-opacity="0.1955" d="m97.67454 451.70996l0 0c0 -126.286194 102.375206 -228.6614 228.66144 -228.6614l0 0c60.644775 0 118.805695 24.09105 161.68802 66.97339c42.882324 42.882324 66.97339 101.04324 66.97339 161.68802l0 0c0 126.286255 -102.37521 228.66144 -228.6614 228.66144l0 0c-126.286224 0 -228.66144 -102.37518 -228.66144 -228.66144z" fill-rule="evenodd"/><path fill="#000000" fill-opacity="0.1955" d="m350.38846 482.40027l255.96848 -442.77167l255.9685 442.77167z" fill-rule="evenodd"/></g></svg>