<svg width="33" height="28" viewBox="0 0 33 28" fill="none" xmlns="http://www.w3.org/2000/svg">
<g clip-path="url(#clip0_201_2)">
<rect x="2" width="28" height="28" rx="4" fill="url(#paint0_linear_201_2)"/>
<path d="M2.30435 7.34999H3.52174C3.92754 5.54165 5.22609 1.92499 7.17391 1.92499C9.12174 1.92499 11.942 1.92499 13.1087 1.92499L14.4783 8.92499L11.8913 10.675V17.85L14.4783 19.6L13.1087 26.075C13.1087 26.1917 12.987 26.425 12.5 26.425C12.013 26.425 8.64493 26.425 7.02174 26.425C5.85507 25.725 3.55217 23.905 3.67391 22.225C3.77536 21.875 3.79565 21.175 3.06522 21.175C2.33478 21.175 2.05072 21.175 2 21.175" stroke="black"/>
<path d="M2.15217 8.92499H10.2174L12.0435 10.675" stroke="black"/>
<path d="M2.15217 10.675H3.52174V17.85H2.15217" stroke="black"/>
<path d="M3.67391 14.175H11.7391" stroke="black"/>
<path d="M2.15217 19.425H10.3696L11.8913 17.85" stroke="black"/>
<path d="M29.1739 21H27.9565C27.5507 22.8083 26.2522 26.425 24.3043 26.425C22.3565 26.425 19.5362 26.425 18.3696 26.425L17 19.425L19.587 17.675V10.5L17 8.74999L18.3696 2.27499C18.3696 2.15832 18.4913 1.92499 18.9783 1.92499C19.4652 1.92499 22.8333 1.92499 24.4565 1.92499C25.6232 2.62499 27.9261 4.44499 27.8043 6.12499C27.7029 6.47499 27.6826 7.17499 28.413 7.17499C29.1435 7.17499 29.4275 7.17499 29.4783 7.17499" stroke="black"/>
<path d="M29.3261 19.425H21.2609L19.4348 17.675" stroke="black"/>
<path d="M29.3261 17.675H27.9565V10.5H29.3261" stroke="black"/>
<path d="M27.8043 14.175H19.7391" stroke="black"/>
<path d="M29.3261 8.925H21.1087L19.587 10.5" stroke="black"/>
</g>
<defs>
<linearGradient id="paint0_linear_201_2" x1="26.3478" y1="0.700001" x2="0.771461" y2="22.4895" gradientUnits="userSpaceOnUse">
<stop stop-color="#D1D3D4"/>
<stop offset="0.5625" stop-color="#E9E9E9"/>
<stop offset="1" stop-color="#CFCFCF"/>
</linearGradient>
<clipPath id="clip0_201_2">
<rect width="32.3333" height="28" fill="white"/>
</clipPath>
</defs>
</svg>
